<svg xmlns="http://www.w3.org/2000/svg" viewBox="0 0 275 128.79"><defs><style>.cls-1{fill:#fff;fill-rule:evenodd;}</style></defs><title>Ресурс 1</title><g id="Слой_2" data-name="Слой 2"><g id="Слой_4" data-name="Слой 4"><path class="cls-1" d="M13.53,58.65a4.85,4.85,0,0,0,1.58-2.07l3.47-10.33H41l3.47,10.33a5.19,5.19,0,0,0,1.64,2.15,4.56,4.56,0,0,0,2.86.83H59.54L36.75.63h-14L0,59.57H10.69A4.4,4.4,0,0,0,13.53,58.65ZM27.17,21q.59-1.54,1.26-3.65t1.3-4.56q.67,2.45,1.38,4.52t1.3,3.61l5.4,16.16H21.73Z"/><path class="cls-1" d="M100,59.57h12.34L99.84,39a13,13,0,0,0-2.11-2.47,11,11,0,0,0-2.54-1.72,20,20,0,0,0,5.17-2.76,17.76,17.76,0,0,0,3.81-3.86,16.33,16.33,0,0,0,2.34-4.71,18.25,18.25,0,0,0,.79-5.42,18.17,18.17,0,0,0-1.31-7,13.85,13.85,0,0,0-4.17-5.53A20.81,20.81,0,0,0,94.43,2a39.51,39.51,0,0,0-11-1.32H64.16V59.57H77.8V37.72h3.51a4.89,4.89,0,0,1,2.41.49,4.41,4.41,0,0,1,1.54,1.6L95.07,57A5.24,5.24,0,0,0,100,59.57ZM93.08,22.73a7.68,7.68,0,0,1-1.81,2.94,8.25,8.25,0,0,1-3.19,2,14.31,14.31,0,0,1-4.75.69H77.8V10.86h5.52q5.28,0,7.81,2.19a7.61,7.61,0,0,1,2.52,6.06A11.15,11.15,0,0,1,93.08,22.73Z"/><polygon class="cls-1" points="128.16 59.56 141.8 59.56 141.8 11.46 158.36 11.46 158.36 0.63 111.59 0.63 111.59 11.46 128.16 11.46 128.16 59.56"/><path class="cls-1" d="M186.32,39.82,196.13,57a5.24,5.24,0,0,0,4.93,2.61h12.34L200.91,39a13,13,0,0,0-2.11-2.47,10.94,10.94,0,0,0-2.54-1.72,20,20,0,0,0,5.17-2.76,17.76,17.76,0,0,0,3.82-3.86,16.35,16.35,0,0,0,2.34-4.71,18.27,18.27,0,0,0,.79-5.42,18.17,18.17,0,0,0-1.31-7,13.86,13.86,0,0,0-4.17-5.53A20.81,20.81,0,0,0,195.49,2a39.51,39.51,0,0,0-11-1.32H165.22V59.57h13.64V37.72h3.51a4.89,4.89,0,0,1,2.41.49A4.42,4.42,0,0,1,186.32,39.82Zm-7.45-11.5V10.86h5.52q5.28,0,7.81,2.19a7.61,7.61,0,0,1,2.52,6.06,11.15,11.15,0,0,1-.57,3.61,7.7,7.7,0,0,1-1.81,2.94,8.25,8.25,0,0,1-3.19,2,14.31,14.31,0,0,1-4.75.69Z"/><path class="cls-1" d="M272.8,18.24A28.13,28.13,0,0,0,257,2.31,32.49,32.49,0,0,0,244.48,0a33,33,0,0,0-12.54,2.29,28.6,28.6,0,0,0-9.66,6.34,28.36,28.36,0,0,0-6.23,9.56,31.73,31.73,0,0,0-2.21,11.92A31.54,31.54,0,0,0,216.05,42,28.05,28.05,0,0,0,232,57.91a33.09,33.09,0,0,0,12.52,2.29A32.79,32.79,0,0,0,257,57.91a28.3,28.3,0,0,0,9.62-6.36A28.78,28.78,0,0,0,272.8,42,31.53,31.53,0,0,0,275,30.12,31.64,31.64,0,0,0,272.8,18.24ZM259.88,38a16.74,16.74,0,0,1-3.23,5.91,13.8,13.8,0,0,1-5.19,3.72,18,18,0,0,1-7,1.29,18.18,18.18,0,0,1-7.06-1.29,14,14,0,0,1-5.2-3.72A16.59,16.59,0,0,1,229,38a25.7,25.7,0,0,1-1.12-7.91A25.75,25.75,0,0,1,229,22.23a16.56,16.56,0,0,1,3.25-5.93,14.13,14.13,0,0,1,5.22-3.74,18,18,0,0,1,7-1.3,17.73,17.73,0,0,1,7,1.3,14,14,0,0,1,5.19,3.74,16.72,16.72,0,0,1,3.23,5.93A25.75,25.75,0,0,1,261,30.12,25.7,25.7,0,0,1,259.88,38Z"/><polygon class="cls-1" points="14.07 69.23 0.42 69.23 0.42 128.16 35.88 128.16 35.88 117.34 14.07 117.34 14.07 69.23"/><path class="cls-1" d="M77.79,104.26a18.08,18.08,0,0,1-.79,5.57A11.8,11.8,0,0,1,74.72,114a9.87,9.87,0,0,1-3.65,2.64,13.68,13.68,0,0,1-9.82,0A9.76,9.76,0,0,1,57.6,114a12,12,0,0,1-2.29-4.18,18.06,18.06,0,0,1-.79-5.57v-35H40.88v34.92a27.51,27.51,0,0,0,1.74,9.93,22.08,22.08,0,0,0,5,7.8,22.65,22.65,0,0,0,7.95,5.1,29,29,0,0,0,10.59,1.82A29,29,0,0,0,76.69,127a22.62,22.62,0,0,0,8-5.1,22.32,22.32,0,0,0,5-7.8,27.25,27.25,0,0,0,1.75-9.93V69.23H77.79Z"/><polygon class="cls-1" points="183.19 91.27 220.01 91.27 235.13 69.23 183.19 69.23 183.19 91.27"/><path class="cls-1" d="M147.49,69.23H139a2.84,2.84,0,0,0-1.54.4,3.85,3.85,0,0,0-1.18,1.3L126.06,88.58a9.36,9.36,0,0,0-.61,1,9.75,9.75,0,0,0-.45,1L113.28,70.73a2.89,2.89,0,0,0-1.1-1.17,4.4,4.4,0,0,0-2-.34H96.56l18.22,28.64-18.93,30.3h12.74a2.87,2.87,0,0,0,2-.69A8.67,8.67,0,0,0,111.9,126l11-19.12a7.69,7.69,0,0,0,.71-1.54L135.4,126a4.93,4.93,0,0,0,1.3,1.52,3.41,3.41,0,0,0,2.17.65H168V105H145.84V91.27H168v-22H147.49Z"/><polygon class="cls-1" points="183.19 128.16 194.73 128.16 210.6 105 183.19 105 183.19 128.16"/></g></g></svg>