<svg xmlns="http://www.w3.org/2000/svg" viewBox="0 0 89.97 80"><defs><style>.cls-1{fill:#fff;}</style></defs><title>basket</title><g id="Слой_2" data-name="Слой 2"><g id="Слой_1-2" data-name="Слой 1"><path class="cls-1" d="M3,0A3,3,0,0,0,3,6h9.56L22.88,54.66C23.28,56.49,24.48,58,26,58H76a3,3,0,1,0,0-6H28.44l-1.28-6H80a3.09,3.09,0,0,0,2.91-2.34l7-30A3.14,3.14,0,0,0,87,10H19.56L17.94,2.38A3.1,3.1,0,0,0,15,0ZM20.81,16H83.22L77.63,40H25.91ZM36,60A10,10,0,1,0,46,70,10,10,0,0,0,36,60Zm30,0A10,10,0,1,0,76,70,10,10,0,0,0,66,60ZM36,66a4,4,0,1,1-4,4A4,4,0,0,1,36,66Zm30,0a4,4,0,1,1-4,4A4,4,0,0,1,66,66Z"/></g></g></svg>