<svg xmlns="http://www.w3.org/2000/svg" viewBox="0 0 41.79 41.79"><defs><style>.cls-1{fill:#f5446d;}</style></defs><title>capsul</title><g id="Слой_2" data-name="Слой 2"><g id="icons"><path class="cls-1" d="M38.57,3.22A11,11,0,0,0,23,3.22L3.22,23A11,11,0,0,0,18.77,38.57l19.8-19.8A11,11,0,0,0,38.57,3.22ZM17.36,37.16A9,9,0,0,1,4.63,24.43l9.93-9.93a9.4,9.4,0,0,0,.55,1.67,20.67,20.67,0,0,0,4.38,6.14,20.66,20.66,0,0,0,6.14,4.38,9.37,9.37,0,0,0,1.67.55Zm19.8-19.8-7.78,7.78h0c-.32.32-1.29.43-3-.29a18.64,18.64,0,0,1-5.51-4,18.64,18.64,0,0,1-4-5.51c-.72-1.69-.61-2.66-.29-3h0l7.78-7.78A9,9,0,1,1,37.16,17.36Z"/><path class="cls-1" d="M8.17,26.55,6.75,25.14,6,25.84a6.9,6.9,0,0,0,0,9.86L7.5,34.29a4.92,4.92,0,0,1,0-7Z"/></g></g></svg>