<?xml version="1.0" encoding="utf-8"?>
<!-- Generator: Adobe Illustrator 21.0.2, SVG Export Plug-In . SVG Version: 6.00 Build 0)  -->
<svg version="1.1" id="Слой_1" xmlns="http://www.w3.org/2000/svg" xmlns:xlink="http://www.w3.org/1999/xlink" x="0px" y="0px"
	 viewBox="0 0 115.5 56.5" style="enable-background:new 0 0 115.5 56.5;" xml:space="preserve">
<style type="text/css">
	.st0{fill:#D0D0D0;}
	.st1{fill:#9E1C39;}
</style>
<g>
	<g>
		<path class="st0" d="M3.5,35.9c0-4.6,1.8-9.3,5.3-14L19.3,7.7C19.8,7,20.5,6.5,21.4,6c0.9-0.4,2-0.7,3.2-0.7h8.8L19.6,21.8
			c-0.2,0.2-0.4,0.5-0.6,0.7c-0.2,0.2-0.4,0.5-0.6,0.7c0.8-0.3,1.5-0.5,2.3-0.6s1.7-0.2,2.6-0.2c1.7,0,3.3,0.3,5,0.8
			c1.6,0.6,3.1,1.4,4.4,2.6s2.4,2.7,3.2,4.4c0.8,1.8,1.2,3.9,1.2,6.3c0,2.2-0.4,4.2-1.2,6.1s-2,3.6-3.4,5.1
			c-1.5,1.4-3.3,2.6-5.4,3.4c-2.1,0.8-4.4,1.3-6.9,1.3c-2.6,0-4.9-0.4-7-1.2c-2.1-0.8-3.8-1.9-5.3-3.4c-1.4-1.5-2.5-3.2-3.3-5.2
			S3.5,38.4,3.5,35.9z M13,37.3c0,1.2,0.1,2.2,0.4,3.1c0.3,0.9,0.7,1.7,1.3,2.4c0.6,0.7,1.3,1.2,2.2,1.6c0.9,0.4,1.9,0.5,3.1,0.5
			c1,0,2-0.2,2.9-0.6c0.9-0.4,1.6-0.9,2.3-1.6s1.1-1.5,1.5-2.4s0.6-1.9,0.6-3c0-1.2-0.2-2.3-0.5-3.3s-0.8-1.8-1.5-2.4
			c-0.6-0.6-1.4-1.1-2.3-1.5s-1.9-0.5-3-0.5c-1,0-1.9,0.2-2.8,0.5c-0.8,0.4-1.6,0.9-2.2,1.6c-0.6,0.7-1.1,1.5-1.4,2.4
			C13.2,35.1,13,36.1,13,37.3z"/>
		<path class="st0" d="M41.5,28.7c0-4.1,0.4-7.6,1.3-10.6c0.9-3,2.1-5.5,3.6-7.4c1.5-2,3.3-3.4,5.5-4.4c2.1-0.9,4.4-1.4,6.9-1.4
			c2.5,0,4.8,0.5,6.9,1.4c2.1,0.9,3.9,2.4,5.5,4.4c1.6,2,2.8,4.4,3.6,7.4c0.9,3,1.3,6.5,1.3,10.6c0,4.1-0.4,7.6-1.3,10.6
			c-0.9,3-2.1,5.4-3.6,7.4c-1.6,2-3.4,3.4-5.5,4.4c-2.1,1-4.4,1.4-6.9,1.4c-2.5,0-4.8-0.5-6.9-1.4c-2.1-1-3.9-2.4-5.5-4.4
			c-1.5-2-2.7-4.4-3.6-7.4C41.9,36.3,41.5,32.7,41.5,28.7z M51.7,28.7c0,3.2,0.2,5.8,0.6,7.9c0.4,2,0.9,3.6,1.6,4.8
			c0.6,1.2,1.4,2,2.2,2.4s1.7,0.7,2.6,0.7s1.7-0.2,2.6-0.7c0.9-0.4,1.6-1.2,2.3-2.4c0.7-1.2,1.2-2.8,1.6-4.8s0.6-4.7,0.6-7.9
			c0-3.2-0.2-5.8-0.6-7.9c-0.4-2-0.9-3.6-1.6-4.8c-0.7-1.2-1.4-2-2.3-2.4c-0.9-0.4-1.7-0.7-2.6-0.7s-1.7,0.2-2.6,0.7
			s-1.6,1.2-2.2,2.4c-0.6,1.2-1.2,2.8-1.6,4.8C51.9,22.9,51.7,25.5,51.7,28.7z"/>
	</g>
	<g>
		<g>
			<path class="st1" d="M90.5,45.4c1.3,0,2.4-1.1,2.4-2.4c0-1.3-1.1-2.4-2.4-2.4c-1.3,0-2.4,1.1-2.4,2.4
				C88.1,44.4,89.2,45.4,90.5,45.4z M90.5,42.2c0.5,0,0.8,0.4,0.8,0.8s-0.4,0.8-0.8,0.8c-0.5,0-0.8-0.4-0.8-0.8S90,42.2,90.5,42.2z"
				/>
		</g>
		<g>
			<path class="st1" d="M88.2,26.8c0-1.3-1.1-2.4-2.4-2.4c-1.3,0-2.4,1.1-2.4,2.4c0,1.3,1.1,2.4,2.4,2.4
				C87.1,29.2,88.2,28.1,88.2,26.8z M85,26.8c0-0.5,0.4-0.8,0.8-0.8c0.5,0,0.8,0.4,0.8,0.8c0,0.5-0.4,0.8-0.8,0.8
				C85.3,27.6,85,27.2,85,26.8z"/>
		</g>
		<g>
			<path class="st1" d="M86.2,8.3L86.2,8.3l0.1-1.6L86,7c-0.5,0.4-1.1,0.6-1.7,0.6c-0.7,0-1.2-0.2-1.6-0.6c-0.4-0.4-0.6-1-0.6-1.6
				c0-0.7,0.2-1.2,0.6-1.6C83,3.2,83.6,3,84.2,3c0.6,0,1.2,0.2,1.7,0.5l0.3,0.2V2.2l-0.1-0.1c-0.5-0.3-1.2-0.5-1.9-0.5
				c-1,0-1.9,0.3-2.6,1c-0.7,0.7-1,1.5-1,2.6c0,1,0.3,1.9,1,2.6l0,0c0.7,0.7,1.6,1,2.6,1C84.9,8.9,85.6,8.7,86.2,8.3z"/>
		</g>
		<g>
			<path class="st1" d="M87.3,5.8c-0.4,0.3-0.6,0.7-0.6,1.3c0,0.5,0.2,1,0.6,1.3c0.4,0.3,0.8,0.5,1.4,0.5c0.7,0,1.2-0.2,1.6-0.6
				c0.2,0.3,0.5,0.5,1,0.5c0.3,0,0.5-0.1,0.7-0.2L92,8.6V7.4l-0.3,0.2c-0.1,0-0.1,0-0.2,0c-0.2,0-0.2-0.2-0.2-0.3V5.6
				c0-1.2-0.9-1.9-2.3-1.9c-0.7,0-1.3,0.1-1.8,0.4l-0.1,0.1v1.3l0.3-0.2c0.4-0.3,0.9-0.4,1.3-0.4c1,0,1.1,0.4,1.2,0.8
				c-0.4-0.2-0.8-0.2-1.3-0.2C88.2,5.4,87.7,5.6,87.3,5.8z M90,6.8v0.4c-0.3,0.3-0.7,0.4-1.1,0.4c-0.3,0-0.8-0.1-0.8-0.5
				c0-0.5,0.6-0.5,0.9-0.5C89.3,6.5,89.7,6.6,90,6.8z"/>
		</g>
		<g>
			<path class="st1" d="M48.5,34.4c0.6,0,1.2,0.2,1.7,0.5l0.3,0.2v-1.5l-0.1-0.1c-0.5-0.3-1.2-0.5-1.9-0.5c-1,0-1.9,0.3-2.6,1
				c-0.7,0.7-1,1.5-1,2.6c0,1,0.3,1.9,1,2.6l0,0c0.7,0.7,1.6,1,2.6,1c0.8,0,1.4-0.2,2-0.6l0.1-0.1v-1.5l-0.3,0.2
				c-0.5,0.4-1.1,0.6-1.7,0.6c-0.7,0-1.2-0.2-1.6-0.6c-0.4-0.4-0.6-1-0.6-1.6c0-0.7,0.2-1.2,0.6-1.6C47.3,34.6,47.9,34.4,48.5,34.4z
				"/>
		</g>
		<g>
			<path class="st1" d="M52.9,40.2c0.7,0,1.2-0.2,1.6-0.6c0.2,0.3,0.5,0.5,1,0.5c0.3,0,0.5-0.1,0.7-0.2l0.1-0.1v-1.2l-0.3,0.2
				c-0.1,0-0.1,0-0.2,0c-0.2,0-0.2-0.2-0.2-0.3V37c0-1.2-0.9-1.9-2.3-1.9c-0.7,0-1.3,0.1-1.8,0.4l-0.1,0.1v1.3l0.3-0.2
				c0.4-0.3,0.9-0.4,1.3-0.4c1,0,1.1,0.4,1.2,0.8c-0.4-0.2-0.8-0.2-1.3-0.2c-0.6,0-1,0.1-1.4,0.4c-0.4,0.3-0.6,0.7-0.6,1.3
				c0,0.5,0.2,1,0.6,1.3C51.9,40.1,52.4,40.2,52.9,40.2z M52.4,38.4c0-0.5,0.6-0.5,0.9-0.5c0.4,0,0.7,0.1,1,0.3v0.4
				C54,38.8,53.6,39,53.2,39C52.9,39,52.4,38.9,52.4,38.4z"/>
		</g>
		<g>
			<path class="st1" d="M54,18.2c0-1.7-1.4-3-3-3c-1.7,0-3,1.4-3,3c0,1.7,1.4,3,3,3C52.6,21.3,54,19.9,54,18.2z M49.5,18.2
				c0-0.8,0.7-1.5,1.5-1.5c0.8,0,1.5,0.7,1.5,1.5c0,0.8-0.7,1.5-1.5,1.5C50.1,19.7,49.5,19,49.5,18.2z"/>
		</g>
		<g>
			<path class="st1" d="M97.6,30.3c-0.4,0-0.8,0.3-0.8,0.8s0.3,0.8,0.8,0.8h0.1c0,0,0.1,0,0.1,0c1.5-0.1,2.7-1.4,2.7-2.9
				c0-1.6-1.3-2.9-2.9-2.9h-1.7c-0.4,0-0.8,0.3-0.8,0.8c0,0.4,0.3,0.8,0.8,0.8h1.7c0.8,0,1.4,0.6,1.4,1.4
				C99,29.7,98.3,30.3,97.6,30.3z"/>
		</g>
		<g>
			<path class="st1" d="M54.5,47.8h-4.3c-0.4,0-0.8,0.3-0.8,0.8s0.3,0.8,0.8,0.8h4.3c0.3,0,0.6,0.3,0.6,0.6c0,0.3-0.3,0.6-0.6,0.6
				h-8.4c-0.4,0-0.8,0.3-0.8,0.8c0,0.4,0.3,0.8,0.8,0.8h8.4c1.2,0,2.2-1,2.2-2.2C56.6,48.8,55.7,47.8,54.5,47.8z"/>
		</g>
		<g>
			<path class="st1" d="M68,28.6c0.2,0,0.5,0,0.7,0c0.9,0,1.8-0.2,2.7-0.6c0.6-0.3,1.3-0.3,1.8,0c1,0.5,2.2,0.7,3.4,0.6
				c2.9-0.3,5.3-2.9,5.4-5.9c0.1-1.9-0.6-3.7-1.9-5c-1.8-1.8-3-4.4-3-7V7.9c0-0.4-0.3-0.7-0.6-0.8c-2.8-0.5-5.6-0.5-8.4,0
				c-0.4,0.1-0.6,0.4-0.6,0.8V11c0,2.5-1,4.9-3,6.8c-1.3,1.3-2,3.1-1.9,5C62.7,25.7,65.1,28.2,68,28.6z M65.5,18.9
				c2.2-2.1,3.4-4.9,3.4-7.9V8.5c2.2-0.3,4.4-0.3,6.6,0v2.2c0,3,1.3,6,3.4,8.1c1,1,1.5,2.3,1.5,3.8c-0.1,2.3-1.9,4.2-4.1,4.4
				c-0.9,0.1-1.7,0-2.5-0.4c-1-0.5-2.2-0.5-3.2,0C69.9,27,69,27.1,68.1,27c-2.2-0.3-3.9-2.2-4.1-4.4C64,21.2,64.5,19.8,65.5,18.9z"
				/>
		</g>
		<g>
			<path class="st1" d="M72.3,55.5c1.4,0,2.8-0.1,4.2-0.4c0.4-0.1,0.6-0.4,0.6-0.8v-3.9c0-2.5,1-4.9,3-6.8c1.3-1.3,2-3.1,1.9-5
				c-0.2-3-2.5-5.5-5.4-5.9c-1.2-0.1-2.3,0.1-3.4,0.6c-0.6,0.3-1.3,0.3-1.8,0c-1-0.5-2.2-0.7-3.4-0.6c-2.9,0.3-5.3,2.9-5.4,5.9
				c-0.1,1.9,0.6,3.7,1.9,5c1.9,1.9,3,4.3,3,6.8v3.9c0,0.4,0.3,0.7,0.6,0.8C69.5,55.3,70.9,55.5,72.3,55.5z M65.5,42.5
				c-1-1-1.5-2.3-1.5-3.8c0.1-2.3,1.9-4.2,4.1-4.4c0.9-0.1,1.7,0,2.5,0.4c1,0.5,2.2,0.5,3.2,0c0.8-0.4,1.6-0.5,2.5-0.4
				c2.2,0.3,3.9,2.2,4.1,4.4c0.1,1.4-0.4,2.8-1.5,3.8c-2.2,2.1-3.4,4.9-3.4,7.9v3.3c-2.2,0.3-4.4,0.3-6.6,0v-3.3
				C69,47.5,67.8,44.7,65.5,42.5z"/>
		</g>
		<g>
			<circle class="st1" cx="57.1" cy="22.6" r="0.6"/>
		</g>
		<g>
			<circle class="st1" cx="83.4" cy="46.5" r="0.6"/>
		</g>
	</g>
</g>
</svg>
