<?xml version="1.0" encoding="utf-8"?>
<!-- Generator: Adobe Illustrator 21.0.2, SVG Export Plug-In . SVG Version: 6.00 Build 0)  -->
<svg version="1.1" id="Слой_1" xmlns="http://www.w3.org/2000/svg" xmlns:xlink="http://www.w3.org/1999/xlink" x="0px" y="0px"
	 viewBox="0 0 115.5 61" style="enable-background:new 0 0 115.5 61;" xml:space="preserve">
<style type="text/css">
	.st0{fill:#D0D0D0;}
	.st1{fill:#9E1C39;}
</style>
<g>
	<g>
		<path class="st0" d="M4.7,20L19.3,7.8h8.2v39.4h7.7v7.3H8.6v-7.3h9V23.8c0-1.1,0-2.3,0.1-3.6l-5.3,4.4c-0.5,0.4-0.9,0.6-1.4,0.6
			c-0.4,0.1-0.9,0.1-1.3,0S8.9,25,8.6,24.8c-0.3-0.2-0.6-0.4-0.7-0.6L4.7,20z"/>
		<path class="st0" d="M42.1,41.2c0-1.3,0.1-2.4,0.4-3.6c0.3-1.1,0.8-2.2,1.4-3.1c0.6-0.9,1.5-1.8,2.5-2.5s2.2-1.3,3.6-1.8
			c-2.1-1-3.7-2.3-4.7-4c-1-1.7-1.5-3.7-1.5-6.1c0-1.8,0.4-3.5,1.1-5s1.8-2.9,3.1-4c1.3-1.1,2.9-2,4.7-2.7c1.8-0.6,3.8-1,6-1
			c2.2,0,4.2,0.3,6,1s3.4,1.5,4.8,2.7c1.3,1.1,2.4,2.5,3.1,4s1.1,3.2,1.1,5c0,2.4-0.5,4.4-1.5,6.1s-2.6,3-4.7,4
			c1.4,0.5,2.6,1.1,3.6,1.8c1,0.7,1.8,1.5,2.4,2.5c0.6,0.9,1.1,2,1.4,3.1c0.3,1.1,0.4,2.3,0.4,3.6c0,2.1-0.4,4-1.2,5.7
			s-1.9,3.2-3.4,4.4s-3.2,2.1-5.3,2.8c-2,0.7-4.3,1-6.8,1c-2.5,0-4.7-0.3-6.8-1c-2-0.7-3.8-1.6-5.3-2.8s-2.6-2.7-3.4-4.4
			C42.5,45.1,42.1,43.3,42.1,41.2z M52.4,41c0,0.9,0.1,1.8,0.4,2.6c0.3,0.8,0.6,1.5,1.2,2.1c0.5,0.6,1.2,1,2,1.4
			c0.8,0.3,1.8,0.5,2.9,0.5c1.1,0,2.1-0.2,2.9-0.5s1.5-0.8,2-1.4c0.5-0.6,0.9-1.3,1.2-2.1c0.3-0.8,0.4-1.7,0.4-2.6
			c0-1-0.1-1.9-0.3-2.8c-0.2-0.8-0.6-1.5-1.1-2.1c-0.5-0.6-1.1-1-2-1.4c-0.8-0.3-1.8-0.5-3-0.5c-1.2,0-2.2,0.2-3,0.5
			c-0.8,0.3-1.5,0.8-2,1.4c-0.5,0.6-0.8,1.3-1.1,2.1C52.5,39.1,52.4,40,52.4,41z M53.3,20.3c0,0.8,0.1,1.6,0.2,2.4
			c0.1,0.8,0.4,1.4,0.8,2s1,1.1,1.7,1.4c0.7,0.4,1.6,0.5,2.7,0.5c1.1,0,2-0.2,2.7-0.5c0.7-0.4,1.3-0.8,1.7-1.4s0.7-1.3,0.8-2
			c0.1-0.8,0.2-1.6,0.2-2.4c0-0.7-0.1-1.4-0.3-2.1s-0.5-1.3-0.9-1.8s-1-0.9-1.7-1.3c-0.7-0.3-1.5-0.5-2.5-0.5c-1,0-1.8,0.2-2.5,0.5
			s-1.3,0.7-1.7,1.3s-0.8,1.1-0.9,1.8C53.4,18.9,53.3,19.6,53.3,20.3z"/>
	</g>
	<g>
		<path class="st1" d="M80.5,32.1c0.1-0.3,0.1-0.5,0.2-0.8l0-0.3l0.3,0c1.2,0,3.3,0,4.3,0l0.2,0l0.2,0.5c0.5,1.3,1.5,2.3,2.8,2.8
			c1.3,0.5,2.7,0.5,4,0c2.1-0.9,3.4-3,3.2-5.3l0-0.4l0,0c-0.4-2.5-2.5-4.3-5.1-4.3c-2.6,0-4.8,1.9-5.2,4.5l0,0.3l-0.3,0
			c-0.9,0-2.4,0-3.6,0c-0.4,0-0.8,0-1.1,0h-0.2l-0.1-0.1c-0.3-0.4-0.7-0.8-1.1-1.1c-0.4-0.2-0.8-0.4-1.2-0.5l-0.2-0.1V25
			c0-0.3,0-0.6,0-0.9l0-0.2l0.2-0.1c0.3-0.1,0.6-0.2,0.9-0.4c1.8-1,2.5-3.3,1.4-5.1c-0.9-1.6-2.9-2.4-4.6-1.7
			c-1.4,0.5-2.4,1.9-2.4,3.4c-0.1,1.5,0.7,2.9,2.1,3.6l0.4,0.2l0,0.2c0,0.9,0,2.5,0,3.3l0,0.3h-0.3c-0.9,0.4-1.6,1.1-1.9,2.1
			c-0.4,0.9-0.3,2,0.1,2.9l0.2,0.4L72.5,34c-0.8,0.8-1.6,1.7-2.5,2.5l-0.2,0.2l-0.2-0.1c-0.7-0.3-1.5-0.5-2.3-0.5
			c-0.4,0-0.8,0-1.2,0.1c-1.4,0.3-2.6,1.2-3.3,2.4c-1.3,2.2-0.9,5.1,1.2,6.7c2,1.6,4.8,1.6,6.8-0.1c1-0.8,1.6-2,1.7-3.2
			c0.2-1.4-0.2-2.7-1-3.8l-0.2-0.2l0.2-0.2c0.8-0.9,2.5-2.6,3.3-3.3l0.1-0.1l0.3,0.1c1,0.4,1.4,0.5,3,0.1l0.2,0l0.1,0.1
			c0.6,0.6,1.8,1.8,2.4,2.4l0.1,0.2l-0.1,0.2c-0.4,0.8-0.5,1.7-0.4,2.5c0.4,2.2,2.5,3.7,4.7,3.4c2.2-0.4,3.7-2.5,3.4-4.7
			c-0.1-0.6-0.3-1.2-0.7-1.7c-0.6-0.8-1.4-1.4-2.3-1.6c-1-0.3-2.1-0.1-3,0.4l-0.2,0.1l-0.2-0.1c-0.2-0.2-0.5-0.4-0.7-0.7l-1.1-1.1
			c-0.1-0.1-0.3-0.3-0.4-0.4l-0.2-0.2l0.1-0.2C80.2,32.7,80.4,32.4,80.5,32.1z M88.1,27.1c0.6-0.6,1.4-1,2.3-1l0.1,0
			c0.9,0,1.7,0.4,2.3,1c0.6,0.6,1,1.4,1,2.3l0,0.3c-0.1,0.8-0.4,1.5-1,2.1c-0.6,0.6-1.4,0.9-2.2,0.9c0,0,0,0-0.1,0h-0.1
			c-0.8,0-1.6-0.3-2.2-0.9c-0.7-0.6-1.1-1.5-1-2.4C87.2,28.6,87.5,27.8,88.1,27.1z M70.7,41.2c0,1.8-1.5,3.3-3.3,3.3c0,0,0,0,0,0
			c-0.9,0-1.7-0.3-2.3-0.9c-0.6-0.6-1-1.5-1-2.4c0-0.9,0.4-1.7,1-2.3c0.6-0.6,1.4-1,2.3-1c0.9,0,1.7,0.4,2.4,1
			C70.4,39.5,70.7,40.4,70.7,41.2L70.7,41.2z M75.6,21.5c-0.4-0.4-0.6-0.9-0.6-1.4c0-0.5,0.2-1,0.5-1.3c0.4-0.4,0.9-0.6,1.5-0.5l0,0
			c0.4,0,0.9,0.2,1.2,0.5c0.4,0.3,0.6,0.8,0.6,1.3c0,0.5-0.2,1-0.5,1.3C78,21.8,77.5,22,77,22l-0.1,0c0,0,0,0,0,0
			C76.4,22,76,21.8,75.6,21.5z M78.8,31c0,1-0.8,1.8-1.8,1.8c0,0,0,0,0,0c-0.5,0-1-0.2-1.4-0.6c-0.3-0.3-0.5-0.8-0.5-1.3
			c0-0.5,0.2-1,0.6-1.3c0.3-0.3,0.8-0.5,1.3-0.5c0,0,0,0,0,0c0.5,0,1,0.2,1.3,0.5C78.6,29.9,78.8,30.4,78.8,31L78.8,31z M82.5,38.8
			c0.1-0.5,0.3-0.9,0.6-1.3c0.4-0.4,0.9-0.6,1.5-0.6c1.2,0,2.2,1,2.2,2.1c0,0.6-0.3,1.1-0.7,1.5c-0.4,0.4-0.9,0.6-1.5,0.6
			c0,0-0.1,0-0.1,0c-1.1,0-2-0.9-2.1-2L82.5,38.8L82.5,38.8z"/>
		<path class="st1" d="M55.7,38.1c0,0.7,0.6,1.3,1.3,1.3c0.7,0,1.3-0.6,1.3-1.3c0-0.7-0.6-1.3-1.3-1.3
			C56.3,36.7,55.7,37.3,55.7,38.1z M57.1,37.9c0.1,0,0.1,0.1,0.1,0.1c0,0.1-0.1,0.1-0.1,0.1c-0.1,0-0.1-0.1-0.1-0.1
			C57,38,57,37.9,57.1,37.9z"/>
		<path class="st1" d="M103.7,44.4c0,0-0.1,0-0.1,0h-0.1c-0.4,0-0.7,0.3-0.7,0.7c0,0.4,0.3,0.7,0.7,0.7c0.8,0,1.4,0.6,1.4,1.4
			s-0.6,1.4-1.4,1.4h-1.8c-0.4,0-0.7,0.3-0.7,0.7c0,0.4,0.3,0.7,0.7,0.7h1.8c1.6,0,2.9-1.3,2.9-2.9
			C106.4,45.8,105.2,44.5,103.7,44.4z"/>
		<path class="st1" d="M64.1,55.4h-8.5c-0.4,0-0.7-0.3-0.7-0.7c0-0.4,0.3-0.7,0.7-0.7H60c0.4,0,0.7-0.3,0.7-0.7
			c0-0.4-0.3-0.7-0.7-0.7h-4.4c-1.2,0-2.2,1-2.2,2.2s1,2.2,2.2,2.2h8.5c0.4,0,0.7-0.3,0.7-0.7C64.9,55.7,64.6,55.4,64.1,55.4z"/>
		<path class="st1" d="M65.2,12.5c1.7,0,3-1.4,3-3s-1.4-3-3-3c-1.7,0-3,1.4-3,3S63.5,12.5,65.2,12.5z M65.2,7.9
			c0.9,0,1.6,0.7,1.6,1.6c0,0.9-0.7,1.6-1.6,1.6c-0.9,0-1.6-0.7-1.6-1.6C63.7,8.6,64.4,7.9,65.2,7.9z"/>
		<path class="st1" d="M71.1,6.4c0.7,0,1.3-0.6,1.3-1.3s-0.6-1.3-1.3-1.3S69.7,4.3,69.7,5S70.3,6.4,71.1,6.4z M71.1,4.9
			c0.1,0,0.1,0.1,0.1,0.1s-0.1,0.1-0.1,0.1S70.9,5.1,70.9,5S71,4.9,71.1,4.9z"/>
		<path class="st1" d="M54.3,18.5h0.1c0.4,0,0.7-0.3,0.7-0.7c0-0.4-0.3-0.7-0.7-0.7c-0.8,0-1.4-0.6-1.4-1.4s0.6-1.4,1.4-1.4h1.8
			c0.4,0,0.7-0.3,0.7-0.7c0-0.4-0.3-0.7-0.7-0.7h-1.8c-1.6,0-2.9,1.3-2.9,2.9c0,1.5,1.2,2.8,2.7,2.9C54.2,18.5,54.2,18.5,54.3,18.5z
			"/>
		<path class="st1" d="M94.5,50.4c-1.7,0-3,1.4-3,3s1.4,3,3,3c1.7,0,3-1.4,3-3S96.2,50.4,94.5,50.4z M94.5,55
			c-0.9,0-1.6-0.7-1.6-1.6s0.7-1.6,1.6-1.6c0.9,0,1.6,0.7,1.6,1.6S95.3,55,94.5,55z"/>
		<path class="st1" d="M102.1,31.8c0.7,0,1.3-0.6,1.3-1.3c0-0.7-0.6-1.3-1.3-1.3c-0.7,0-1.3,0.6-1.3,1.3
			C100.8,31.2,101.4,31.8,102.1,31.8z M102.1,30.3c0.1,0,0.1,0.1,0.1,0.1s-0.1,0.1-0.1,0.1c-0.1,0-0.1-0.1-0.1-0.1
			S102,30.3,102.1,30.3z"/>
	</g>
</g>
</svg>
