<?xml version="1.0" encoding="utf-8"?>
<!-- Generator: Adobe Illustrator 21.0.2, SVG Export Plug-In . SVG Version: 6.00 Build 0)  -->
<svg version="1.1" id="Слой_1" xmlns="http://www.w3.org/2000/svg" xmlns:xlink="http://www.w3.org/1999/xlink" x="0px" y="0px"
	 viewBox="0 0 115.5 59.5" style="enable-background:new 0 0 115.5 59.5;" xml:space="preserve">
<style type="text/css">
	.st0{fill:#D0D0D0;}
	.st1{fill:#9E1C39;}
</style>
<g>
	<g>
		<path class="st0" d="M3.5,55.5v-3.2c0-0.6,0.1-1.3,0.4-2c0.3-0.7,0.7-1.3,1.4-1.9l13.4-13.5c1.1-1.1,2.1-2.2,3-3.3
			c0.9-1.1,1.6-2.1,2.1-3.1c0.6-1,1-2,1.2-3.1c0.3-1,0.4-2.1,0.4-3.2c0-1.9-0.4-3.3-1.3-4.3c-0.9-1-2.2-1.5-4-1.5
			c-1.5,0-2.7,0.4-3.7,1.2c-1,0.8-1.7,1.7-2.1,2.9c-0.5,1.2-1.1,1.9-1.8,2.3c-0.7,0.4-1.8,0.5-3.1,0.3l-5.3-0.9c0.3-2.3,1-4.4,2-6.1
			s2.2-3.2,3.6-4.3c1.4-1.2,3.1-2,5-2.6c1.9-0.6,3.8-0.8,6-0.8c2.3,0,4.4,0.3,6.2,1s3.4,1.6,4.7,2.8s2.3,2.6,3,4.3
			c0.7,1.7,1.1,3.5,1.1,5.5c0,1.7-0.2,3.3-0.7,4.7c-0.5,1.5-1.1,2.8-2,4.1c-0.8,1.3-1.8,2.6-2.9,3.8c-1.1,1.2-2.3,2.5-3.5,3.7
			l-9.1,9.4c1.2-0.3,2.3-0.6,3.5-0.8c1.1-0.2,2.2-0.3,3.2-0.3h8.7c1.1,0,1.9,0.3,2.5,0.9s0.9,1.4,0.9,2.3v5.7H3.5z"/>
		<path class="st0" d="M41.5,32.2c0-4.1,0.4-7.6,1.3-10.6c0.9-3,2.1-5.5,3.6-7.4c1.5-2,3.3-3.4,5.5-4.4c2.1-0.9,4.4-1.4,6.9-1.4
			c2.5,0,4.8,0.5,6.9,1.4c2.1,0.9,3.9,2.4,5.5,4.4c1.6,2,2.8,4.4,3.6,7.4c0.9,3,1.3,6.5,1.3,10.6c0,4.1-0.4,7.6-1.3,10.6
			c-0.9,3-2.1,5.4-3.6,7.4c-1.6,2-3.4,3.4-5.5,4.4c-2.1,1-4.4,1.4-6.9,1.4c-2.5,0-4.8-0.5-6.9-1.4c-2.1-1-3.9-2.4-5.5-4.4
			c-1.5-2-2.7-4.4-3.6-7.4C41.9,39.8,41.5,36.3,41.5,32.2z M51.7,32.2c0,3.2,0.2,5.8,0.6,7.9c0.4,2,0.9,3.6,1.6,4.8
			c0.6,1.2,1.4,2,2.2,2.4s1.7,0.7,2.6,0.7s1.7-0.2,2.6-0.7c0.9-0.4,1.6-1.2,2.3-2.4c0.7-1.2,1.2-2.8,1.6-4.8s0.6-4.7,0.6-7.9
			c0-3.2-0.2-5.8-0.6-7.9c-0.4-2-0.9-3.6-1.6-4.8c-0.7-1.2-1.4-2-2.3-2.4c-0.9-0.4-1.7-0.7-2.6-0.7s-1.7,0.2-2.6,0.7
			s-1.6,1.2-2.2,2.4c-0.6,1.2-1.2,2.8-1.6,4.8C51.9,26.4,51.7,29,51.7,32.2z"/>
	</g>
	<g>
		<path class="st1" d="M109.6,15c-3.7-3.7-9.7-3.7-13.4,0L80.6,30.5c-0.3,0.3-0.3,0.9,0,1.2l12.2,12.2c0.2,0.2,0.4,0.3,0.6,0.3
			c0.2,0,0.4-0.1,0.6-0.3l15.6-15.6C113.2,24.7,113.2,18.7,109.6,15z M108.3,27.2l-15,15L82.4,31.2l15-15c3-3,7.9-3,10.9,0
			C111.4,19.2,111.4,24.1,108.3,27.2z"/>
		<path class="st1" d="M70.8,34.2c0.2,0.2,0.4,0.3,0.6,0.3c0.2,0,0.4-0.1,0.6-0.3l12.2-12.2c0.3-0.3,0.3-0.9,0-1.2L68.6,5.3
			c-1.8-1.8-4.2-2.8-6.7-2.8c-2.5,0-4.9,1-6.7,2.8c-3.7,3.7-3.7,9.7,0,13.4L70.8,34.2z M56.5,6.5c1.5-1.5,3.4-2.3,5.5-2.3
			c2.1,0,4,0.8,5.5,2.3l15,15L71.4,32.4l-15-15C53.4,14.4,53.4,9.5,56.5,6.5z"/>
		<path class="st1" d="M78.4,40.9c0-1.4-1.2-2.6-2.6-2.6c-1.4,0-2.6,1.2-2.6,2.6c0,1.4,1.2,2.6,2.6,2.6
			C77.2,43.5,78.4,42.3,78.4,40.9z M74.9,40.9c0-0.5,0.4-0.9,0.9-0.9c0.5,0,0.9,0.4,0.9,0.9c0,0.5-0.4,0.9-0.9,0.9
			C75.3,41.8,74.9,41.4,74.9,40.9z"/>
		<path class="st1" d="M85.9,43.3c-1.8,0-3.3,1.5-3.3,3.3c0,1.8,1.5,3.3,3.3,3.3c1.8,0,3.3-1.5,3.3-3.3
			C89.2,44.8,87.7,43.3,85.9,43.3z M85.9,48.1c-0.9,0-1.6-0.7-1.6-1.6c0-0.9,0.7-1.6,1.6-1.6c0.9,0,1.6,0.7,1.6,1.6
			C87.5,47.4,86.8,48.1,85.9,48.1z"/>
		<path class="st1" d="M71.1,46.6c0-1.8-1.5-3.3-3.3-3.3c-1.8,0-3.3,1.5-3.3,3.3c0,1.8,1.5,3.3,3.3,3.3
			C69.6,49.9,71.1,48.4,71.1,46.6z M67.8,48.1c-0.9,0-1.6-0.7-1.6-1.6c0-0.9,0.7-1.6,1.6-1.6c0.9,0,1.6,0.7,1.6,1.6
			C69.4,47.4,68.7,48.1,67.8,48.1z"/>
		<path class="st1" d="M77.6,48.8c-1.4,0-2.6,1.2-2.6,2.6c0,1.4,1.2,2.6,2.6,2.6s2.6-1.2,2.6-2.6C80.2,50,79,48.8,77.6,48.8z
			 M77.6,52.3c-0.5,0-0.9-0.4-0.9-0.9c0-0.5,0.4-0.9,0.9-0.9c0.5,0,0.9,0.4,0.9,0.9C78.4,51.9,78.1,52.3,77.6,52.3z"/>
		<path class="st1" d="M88.8,17c1.4,0,2.6-1.2,2.6-2.6s-1.2-2.6-2.6-2.6c-1.4,0-2.6,1.2-2.6,2.6S87.4,17,88.8,17z M88.8,13.6
			c0.5,0,0.9,0.4,0.9,0.9c0,0.5-0.4,0.9-0.9,0.9c-0.5,0-0.9-0.4-0.9-0.9C87.9,14,88.3,13.6,88.8,13.6z"/>
		<path class="st1" d="M66.9,38.4c0,0.8,0.7,1.5,1.5,1.5c0.8,0,1.5-0.7,1.5-1.5s-0.7-1.5-1.5-1.5C67.6,36.9,66.9,37.6,66.9,38.4z
			 M68.6,38.4c0,0.1-0.1,0.2-0.2,0.2c-0.1,0-0.2-0.1-0.2-0.2s0.1-0.2,0.2-0.2C68.5,38.2,68.6,38.3,68.6,38.4z"/>
		<path class="st1" d="M71.6,54c-0.8,0-1.5,0.7-1.5,1.5c0,0.8,0.7,1.5,1.5,1.5c0.8,0,1.5-0.7,1.5-1.5C73.1,54.7,72.4,54,71.6,54z
			 M71.6,55.7c-0.1,0-0.2-0.1-0.2-0.2s0.1-0.2,0.2-0.2s0.2,0.1,0.2,0.2S71.7,55.7,71.6,55.7z"/>
		<path class="st1" d="M74.5,23c0.5,0.5,1.1,0.7,1.7,0.7s1.2-0.2,1.7-0.7l0,0c0.9-0.9,0.9-2.5,0-3.4l-12-12
			c-0.5-0.5-1.1-0.7-1.7-0.7c-0.6,0-1.2,0.2-1.7,0.7c-0.9,0.9-0.9,2.5,0,3.4L74.5,23z M63.8,8.9c0.1-0.1,0.3-0.2,0.5-0.2
			c0.2,0,0.4,0.1,0.5,0.2l12,12c0.3,0.3,0.3,0.7,0,1l0,0c0,0,0,0,0,0c-0.3,0.3-0.7,0.3-1,0l-12-12C63.5,9.6,63.5,9.1,63.8,8.9z"/>
		<path class="st1" d="M104.1,22.6l-12,12c-0.5,0.5-0.7,1.1-0.7,1.7c0,0.6,0.2,1.2,0.7,1.7l0.6-0.6l-0.6,0.6
			c0.5,0.5,1.1,0.7,1.7,0.7c0.6,0,1.2-0.2,1.7-0.7l12-12c0.9-0.9,0.9-2.5,0-3.4C106.6,21.6,105.1,21.6,104.1,22.6z M106.3,24.7
			l-12,12c-0.3,0.3-0.7,0.2-1,0l0,0c0,0,0,0,0,0c-0.1-0.1-0.2-0.3-0.2-0.5s0.1-0.4,0.2-0.5l12-12c0.1-0.1,0.3-0.2,0.5-0.2
			c0.2,0,0.4,0.1,0.5,0.2C106.6,24,106.6,24.5,106.3,24.7z"/>
		<path class="st1" d="M65,33.2c0-0.5-0.4-0.9-0.9-0.9h-9c-0.3,0-0.6-0.3-0.6-0.6s0.3-0.6,0.6-0.6h4.6c0.5,0,0.9-0.4,0.9-0.9
			c0-0.5-0.4-0.9-0.9-0.9h-4.6c-1.3,0-2.4,1.1-2.4,2.4s1.1,2.4,2.4,2.4h9C64.7,34,65,33.6,65,33.2z"/>
		<path class="st1" d="M108.5,51.2h-1.9c-1.7,0-3.2,1.4-3.2,3.2c0,1.7,1.3,3,2.9,3.2c0,0,0.1,0,0.1,0h0.1c0.5,0,0.9-0.4,0.9-0.9
			c0-0.5-0.4-0.9-0.9-0.9c-0.8,0-1.4-0.6-1.4-1.4c0-0.8,0.6-1.4,1.4-1.4h1.9c0.5,0,0.9-0.4,0.9-0.9S109,51.2,108.5,51.2z"/>
		<path class="st1" d="M53.1,39.5h-3.6c-0.5,0-0.9,0.4-0.9,0.9c0,0.5,0.4,0.9,0.9,0.9h3.6c0.8,0,1.4,0.6,1.4,1.4
			c0,0.8-0.6,1.4-1.4,1.4h-1.9c-0.5,0-0.9,0.4-0.9,0.9c0,0.5,0.4,0.9,0.9,0.9h1.9c1.7,0,3.2-1.4,3.2-3.2
			C56.3,40.9,54.9,39.5,53.1,39.5z"/>
	</g>
</g>
</svg>
