<svg xmlns="http://www.w3.org/2000/svg" xmlns:xlink="http://www.w3.org/1999/xlink" viewBox="0 0 286.2 140.6"><defs><style>.cls-1{fill:none;}.cls-2{clip-path:url(#clip-path);}.cls-3{fill:url(#Безымянный_градиент_10);}.cls-4{clip-path:url(#clip-path-2);}.cls-5{clip-path:url(#clip-path-3);}.cls-6{clip-path:url(#clip-path-4);}.cls-7{clip-path:url(#clip-path-5);}.cls-8{clip-path:url(#clip-path-6);}.cls-9{clip-path:url(#clip-path-7);}.cls-10{clip-path:url(#clip-path-8);}.cls-11{clip-path:url(#clip-path-9);}.cls-12{clip-path:url(#clip-path-10);}</style><clipPath id="clip-path"><path class="cls-1" d="M19.1,65.3a4.57,4.57,0,0,0,1.6-2.1l3.5-10.3H46.6l3.5,10.3a4.91,4.91,0,0,0,1.6,2.1,4.35,4.35,0,0,0,2.9.8H65.2L42.4,7.2h-14L5.6,66.1H16.3A3.88,3.88,0,0,0,19.1,65.3ZM32.8,27.6c.4-1,.8-2.2,1.3-3.7s.9-2.9,1.3-4.6c.4,1.6.9,3.1,1.4,4.5s.9,2.6,1.3,3.6l5.4,16.2H27.3Z"/></clipPath><linearGradient id="Безымянный_градиент_10" y1="-1798.3" x2="286.2" y2="-1798.3" gradientTransform="matrix(1, 0, 0, -1, 0, -1728)" gradientUnits="userSpaceOnUse"><stop offset="0" stop-color="#88152e"/><stop offset="1" stop-color="#c54969"/></linearGradient><clipPath id="clip-path-2"><path class="cls-1" d="M105.6,66.2h12.3L105.4,45.7a12.66,12.66,0,0,0-2.1-2.5,10.06,10.06,0,0,0-2.5-1.7,18.57,18.57,0,0,0,5.2-2.8,15.63,15.63,0,0,0,3.8-3.9,15.82,15.82,0,0,0,2.3-4.7,19.05,19.05,0,0,0,.8-5.4,18.15,18.15,0,0,0-1.3-7,14,14,0,0,0-4.2-5.5A20.54,20.54,0,0,0,100,8.5,39,39,0,0,0,89,7.2H69.7V66.1H83.3V44.3h3.5a5.35,5.35,0,0,1,2.4.5,3.89,3.89,0,0,1,1.5,1.6l9.8,17.1A5.66,5.66,0,0,0,105.6,66.2ZM98.7,29.4a7.89,7.89,0,0,1-1.8,2.9,9.21,9.21,0,0,1-3.2,2,13.51,13.51,0,0,1-4.8.7H83.4V17.5h5.5c3.5,0,6.1.7,7.8,2.2a7.64,7.64,0,0,1,2.5,6.1A13.61,13.61,0,0,1,98.7,29.4Z"/></clipPath><clipPath id="clip-path-3"><polygon class="cls-1" points="133.7 66.2 147.4 66.2 147.4 18.1 163.9 18.1 163.9 7.3 117.2 7.3 117.2 18.1 133.7 18.1 133.7 66.2"/></clipPath><clipPath id="clip-path-4"><path class="cls-1" d="M191.9,46.5l9.8,17.1a5.25,5.25,0,0,0,4.9,2.6h12.3L206.4,45.7a12.66,12.66,0,0,0-2.1-2.5,10.06,10.06,0,0,0-2.5-1.7,18.57,18.57,0,0,0,5.2-2.8,15.63,15.63,0,0,0,3.8-3.9,15.82,15.82,0,0,0,2.3-4.7,19.05,19.05,0,0,0,.8-5.4,18.15,18.15,0,0,0-1.3-7,14,14,0,0,0-4.2-5.5A20.54,20.54,0,0,0,201,8.5a39,39,0,0,0-11-1.3H170.7V66.1h13.6V44.3h3.5a5.35,5.35,0,0,1,2.4.5A4,4,0,0,1,191.9,46.5ZM184.5,35V17.5H190c3.5,0,6.1.7,7.8,2.2a7.64,7.64,0,0,1,2.5,6.1,10.46,10.46,0,0,1-.6,3.6,7.89,7.89,0,0,1-1.8,2.9,9.21,9.21,0,0,1-3.2,2,13.51,13.51,0,0,1-4.8.7h-5.4Z"/></clipPath><clipPath id="clip-path-5"><path class="cls-1" d="M278.4,24.9a28.36,28.36,0,0,0-6.2-9.6,30.46,30.46,0,0,0-9.6-6.4,35.12,35.12,0,0,0-25,0,28.07,28.07,0,0,0-9.7,6.3,26.94,26.94,0,0,0-6.2,9.6,31.1,31.1,0,0,0-2.2,11.9,31.46,31.46,0,0,0,2.2,11.9,28.36,28.36,0,0,0,6.2,9.6,29.81,29.81,0,0,0,9.7,6.4,35.12,35.12,0,0,0,25,0,26.54,26.54,0,0,0,9.6-6.4,28.36,28.36,0,0,0,6.2-9.6,31.1,31.1,0,0,0,2.2-11.9A31,31,0,0,0,278.4,24.9ZM265.5,44.7a16,16,0,0,1-3.2,5.9,13,13,0,0,1-5.2,3.7,19.76,19.76,0,0,1-14.1,0,15,15,0,0,1-5.2-3.7,17.74,17.74,0,0,1-3.3-5.9,27.41,27.41,0,0,1-1.1-7.9,27.41,27.41,0,0,1,1.1-7.9,14.83,14.83,0,0,1,3.3-5.9,13.77,13.77,0,0,1,5.2-3.7,19.5,19.5,0,0,1,14,0,14.09,14.09,0,0,1,5.2,3.7,16,16,0,0,1,3.2,5.9,27.41,27.41,0,0,1,1.1,7.9A24.43,24.43,0,0,1,265.5,44.7Z"/></clipPath><clipPath id="clip-path-6"><polygon class="cls-1" points="19.7 75.9 6 75.9 6 134.8 41.5 134.8 41.5 124 19.7 124 19.7 75.9"/></clipPath><clipPath id="clip-path-7"><path class="cls-1" d="M83.4,110.9a19.41,19.41,0,0,1-.8,5.6,12.23,12.23,0,0,1-2.3,4.2,10.4,10.4,0,0,1-3.6,2.6,13.79,13.79,0,0,1-9.8,0,9.51,9.51,0,0,1-3.6-2.7,12.23,12.23,0,0,1-2.3-4.2,18.9,18.9,0,0,1-.8-5.6v-35H46.6v34.9a28.56,28.56,0,0,0,1.7,9.9,22.7,22.7,0,0,0,5,7.8,22.43,22.43,0,0,0,7.9,5.1,29.08,29.08,0,0,0,10.6,1.8,28.9,28.9,0,0,0,10.5-1.8,22.85,22.85,0,0,0,8-5.1,21.33,21.33,0,0,0,5-7.8,26.43,26.43,0,0,0,1.8-9.9V75.8H83.5v35.1Z"/></clipPath><clipPath id="clip-path-8"><path class="cls-1" d="M153.1,75.9h-8.5a2.41,2.41,0,0,0-1.5.4,5.12,5.12,0,0,0-1.2,1.3L131.6,95.3c-.2.3-.4.7-.6,1s-.3.7-.5,1L118.8,77.4a3.23,3.23,0,0,0-1.1-1.2,4.92,4.92,0,0,0-2-.3H102.1l18.2,28.6-18.9,30.3h12.7a2.72,2.72,0,0,0,2-.7,8.7,8.7,0,0,0,1.3-1.5l11-19.1a5.22,5.22,0,0,0,.7-1.5l11.8,20.7a3.74,3.74,0,0,0,1.3,1.5,3.84,3.84,0,0,0,2.2.7h29.1V111.7H151.3V98h22.2V76H153.1Z"/></clipPath><clipPath id="clip-path-9"><polygon class="cls-1" points="188.8 97.9 225.6 97.9 240.7 75.9 188.8 75.9 188.8 97.9"/></clipPath><clipPath id="clip-path-10"><polygon class="cls-1" points="188.8 134.8 200.3 134.8 216.2 111.6 188.8 111.6 188.8 134.8"/></clipPath></defs><title>Ресурс 1</title><g id="Слой_2" data-name="Слой 2"><g id="Слой_4" data-name="Слой 4"><g class="cls-2"><rect class="cls-3" width="286.2" height="140.6"/></g><g class="cls-4"><rect class="cls-3" width="286.2" height="140.6"/></g><g class="cls-5"><rect class="cls-3" width="286.2" height="140.6"/></g><g class="cls-6"><rect class="cls-3" width="286.2" height="140.6"/></g><g class="cls-7"><rect class="cls-3" width="286.2" height="140.6"/></g><g class="cls-8"><rect class="cls-3" width="286.2" height="140.6"/></g><g class="cls-9"><rect class="cls-3" width="286.2" height="140.6"/></g><g class="cls-10"><rect class="cls-3" width="286.2" height="140.6"/></g><g class="cls-11"><rect class="cls-3" width="286.2" height="140.6"/></g><g class="cls-12"><rect class="cls-3" width="286.2" height="140.6"/></g></g></g></svg>