<svg xmlns="http://www.w3.org/2000/svg" viewBox="0 0 232.96 188.94"><defs><style>.cls-1{fill:#f5446d;}</style></defs><title>plate</title><g id="Слой_2" data-name="Слой 2"><g id="icons"><path class="cls-1" d="M117.8,15.21a80.87,80.87,0,1,0,80.87,80.87A81,81,0,0,0,117.8,15.21Zm0,155.74a74.87,74.87,0,1,1,74.87-74.87A75,75,0,0,1,117.8,170.94Z"/><path class="cls-1" d="M117.8,44.15a51.93,51.93,0,1,0,51.93,51.92A52,52,0,0,0,117.8,44.15Zm0,97.85a45.93,45.93,0,1,1,45.93-45.93A46,46,0,0,1,117.8,142Z"/><path class="cls-1" d="M29.63,124.57c-1-14.72-2.79-45.36-2.44-49,.26-2.7,2.94-5.35,5.37-6.92,2.9-1.88,5.65-6.58,5.79-9.88.09-2.29-.5-9.77-.57-10.61l-.22-2.76h-.34L35.68,5.43a3,3,0,0,0-6,.23l1.53,39.71H26.87V5.55a3,3,0,0,0-6,0V45.38H17.26V5.55a3,3,0,0,0-6,0V45.38H6.92L8.45,5.66a3,3,0,1,0-6-.23L.91,45.38H.8L.57,48.14C.51,49-.08,56.46,0,58.75c.13,3.29,2.89,8,5.79,9.88,2.43,1.57,5.11,4.22,5.37,6.92.35,3.65-1.43,34.3-2.44,49-.46,6.67-3,28.61-4.55,41.71-1.1,9.41-1.1,9.47-1.1,9.79,0,7.09,7.23,12.86,16.12,12.86s16.12-5.77,16.12-12.86c0-.34,0-.67-1.14-10.1C32.65,153,30.09,131.17,29.63,124.57ZM19.2,182.94c-5.44,0-10-3.09-10.12-6.77.07-.73.53-4.67,1.06-9.19,1.54-13.16,4.11-35.18,4.58-42s2.91-45,2.42-50C16.57,69.06,11.3,65,9.06,63.59A9.15,9.15,0,0,1,6,58.51c0-1.07.14-4.29.34-7.13H32c.2,2.84.39,6.06.34,7.13a9.16,9.16,0,0,1-3.05,5.08C27.06,65,21.79,69.06,21.22,75c-.48,5,2,43.2,2.43,50s3,28.62,4.57,41.69c.55,4.68,1,8.75,1.1,9.5C29.24,179.85,24.64,182.94,19.2,182.94Z"/><path class="cls-1" d="M230.12,125l-1-17.39a3,3,0,0,0-.22-.95,9.16,9.16,0,0,0,.12-1.42c0-.29,0-1.42,0-3.24.45-85.63-.36-89.61-.62-90.92l0-.14c-.72-3.56-2.22-11-7.5-11-10.29,0-18,22.56-18,42.74,0,.81,0,1.75-.13,2.89V92.9c0,5,.25,9.43,3.38,13.89a15.4,15.4,0,0,0,5.36,4.78l-.42,7.59c-2.69,48.29-3.15,56.58-3.15,56.91a12.5,12.5,0,1,0,25,0C233,175.74,232.53,168,230.12,125ZM208.79,92.9V46c.1-1.25.14-2.31.14-3.24,0-19.57,7.51-35.85,11.64-36.7.42.52,1.11,2,1.95,6.12l0,.14c.29,1.45.91,13.1.5,89.69,0,1.83,0,3,0,3.27a2.8,2.8,0,0,1-.32,1.32,7.37,7.37,0,0,1-3,.63h-1.85a8.52,8.52,0,0,1-6.83-3.86C209.12,100.55,208.79,97.86,208.79,92.9Zm11.67,90a6.68,6.68,0,0,1-6.5-6.78c0-1.1,2-35.88,3.14-56.66l.35-6.32c.16,0,.31,0,.46,0h1.85a13.22,13.22,0,0,0,3.66-.53l.71,12.67c1.11,19.83,2.79,49.79,2.83,50.73A6.7,6.7,0,0,1,220.46,182.94Z"/></g></g></svg>