<svg xmlns="http://www.w3.org/2000/svg" viewBox="0 0 284.97 67.51"><defs><style>.cls-1{fill:#828281;}</style></defs><title>slogan</title><g id="Слой_2" data-name="Слой 2"><g id="Слой_1-2" data-name="Слой 1"><path class="cls-1" d="M27,27.27A4.46,4.46,0,0,1,26.7,29a22.11,22.11,0,0,0-3.8-.28c-3.35,0-6.92.79-10,1.19A98.12,98.12,0,0,0,6.18,51.64c-2.55-.57-4.42-2.1-6.18-5,1.14-2.38,2.78-6.46,6.86-16.89A4.82,4.82,0,0,1,3.74,27c.39-.4,2.27-.91,4.76-1.48,2.21-5.9,3.34-8.9,4.31-13.49h-.28c-2.89,0-4.82-1.48-4.82-3.68a6,6,0,0,1,.51-2.16,28.43,28.43,0,0,0,4.88.28c9.47,0,16.89-1.24,19.44-1.24,1.76,0,3.17,1.92,3.91,5.21-2.38-.23-3.74-.28-4.88-.28a61.39,61.39,0,0,0-9.86.85c-.9,1.36-2,3.63-6.23,13.21a57.48,57.48,0,0,1,7.6-.79A3.56,3.56,0,0,1,27,27.27Z"/><path class="cls-1" d="M34.68,40.41c0,.45-.06,1-.06,1.48,0,1.93.45,4.54,2.61,4.54,4.08,0,8-4.08,10.37-6.63a7.45,7.45,0,0,1,1,1c-3.4,4.48-7.76,7.7-11.33,8.5C32,48.69,29,45.12,29,40.59c0-9.3,8.5-20.23,16-20.23a7.76,7.76,0,0,1,4.88,3.23C49.25,32.88,44.32,36.57,34.68,40.41Zm.45-2.15c6-3,10.48-7.65,10.77-12.81C41.77,26,37,31.23,35.14,38.26Z"/><path class="cls-1" d="M57.57,40.41c0,.45-.06,1-.06,1.48,0,1.93.45,4.54,2.61,4.54,4.08,0,8-4.08,10.37-6.63a7.5,7.5,0,0,1,1,1c-3.4,4.48-7.76,7.7-11.33,8.5-5.21-.57-8.28-4.14-8.28-8.68,0-9.3,8.5-20.23,16-20.23a7.76,7.76,0,0,1,4.88,3.23C72.14,32.88,67.21,36.57,57.57,40.41ZM58,38.26c6-3,10.48-7.65,10.77-12.81C64.66,26,59.84,31.23,58,38.26Z"/><path class="cls-1" d="M79.78,25.9C84.43,13.21,88.51,4.76,92.42,0c1.81.34,5.72,2.61,6.35,3.57-5.9,7-10.15,14.63-13.89,25C81.71,37.41,80,44.78,80,49.54a7.89,7.89,0,0,0,.06,1.64A2.65,2.65,0,0,1,78,50.11a5.84,5.84,0,0,0-1.53-1.65c-.68-.45-1.19-2.61-1.19-5C75.25,40.13,76.89,33.84,79.78,25.9Z"/><path class="cls-1" d="M111.18,61.9c-3.46,3.63-7.25,5.61-10.94,5.61s-7.76-1.81-8.9-3.91a1.53,1.53,0,0,1,.79-1.19c1.76,1.59,2.32,1.88,4,1.88,8.62,0,16.78-10.49,21-26.81-1.92,3.06-6.06,9.47-9.58,10.71-2.38-.11-5.61-1.75-6.23-4.42a17.32,17.32,0,0,1,.51-4.81c1.42-5.72,5.44-15.3,10.15-18.77,1.24,0,3.85.45,5.15,1.76-.85.74-4,5-7.37,13.1-.68,1.7-2.38,6.86-2.38,8.84a1.46,1.46,0,0,0,.39,1c1.36-.23,3.74-2.16,6.58-6.35C118,33.16,120.3,27.89,124,21.83c2,0,4.81,1,5.5,1.81a122.07,122.07,0,0,0-6,14.62C120.08,49.32,116.67,56.17,111.18,61.9Z"/><path class="cls-1" d="M129.48,39.85c0-6.06,3.92-13.37,9.24-17.29a10.18,10.18,0,0,1,5.84-2.32,10.16,10.16,0,0,1,3.57,4c.34,0,.68-.06,1-.06,2,0,3,1.7,3,5.33A19.83,19.83,0,0,1,136.56,49C132.25,48.58,129.48,45,129.48,39.85Zm5.39,2.83c0,1.81.74,3.8,1.48,4C143.08,45.23,148,38,148,29.14a6.83,6.83,0,0,0-.74-3.8,16,16,0,0,0-7.82,5.84C136.85,34.63,134.86,39.68,134.86,42.68Z"/><path class="cls-1" d="M168.46,41.21a6.41,6.41,0,0,1,.29-2c-.63-.06-4.71,5.78-6,7.26a5.6,5.6,0,0,1-2.44,1.75c-2.38-.11-5.55-1.75-6.18-4.42a20.22,20.22,0,0,1,.46-4.81c1.36-5.72,5.39-15.3,10.14-18.77,1.3,0,3.91.45,5,1.76-.68.74-3.8,5-7.2,13.1-.74,1.7-2.38,6.86-2.38,8.84a1.46,1.46,0,0,0,.39,1c1.14-.45,2.67-2.32,5.79-6.58,1.53-2.1,4.3-5.55,5.55-8.9a19.3,19.3,0,0,1,4.42-7.59c2,0,4.7,1,5.39,1.81-2.78,6.63-7.15,13-7.15,18.93,0,3.23,1.25,4.48,1.25,5.21,0,.17-.23.23-.23.23a13.6,13.6,0,0,1-5.39-2.21A6.21,6.21,0,0,1,168.46,41.21Z"/><path class="cls-1" d="M188.29,24.26a13,13,0,0,1,2.55-4.42,11.29,11.29,0,0,1,5.67,2.72c-2,2.39-3.45,5.28-5,10.09a56.07,56.07,0,0,0,9.81-10.77,1.67,1.67,0,0,1,1.19-.28,3.24,3.24,0,0,1,2.55,1,15.08,15.08,0,0,0-1,5.39,7.42,7.42,0,0,0,.74,3.74,10.67,10.67,0,0,1-2.32,3.12,9.26,9.26,0,0,1-4.48-5.21c-7.14,4.93-9.58,9-11.79,19.38-1.36-.11-4.14-1.92-4.65-3.06C182.23,41.5,185.57,30.72,188.29,24.26Z"/><path class="cls-1" d="M223.65,25.9c4.65-12.7,8.73-21.14,12.64-25.9,1.81.34,5.72,2.61,6.35,3.57-5.9,7-10.15,14.63-13.89,25-3.17,8.84-4.88,16.21-4.88,21a7.8,7.8,0,0,0,.06,1.64,2.65,2.65,0,0,1-2.1-1.08,5.84,5.84,0,0,0-1.53-1.65c-.68-.45-1.19-2.61-1.19-5C219.12,40.13,220.76,33.84,223.65,25.9Z"/><path class="cls-1" d="M234.53,32.48c.34-1.47,2-7.37,5.38-9.07a9.75,9.75,0,0,1,5.27,3.74C241.73,31,240.71,35,238.78,40a23.35,23.35,0,0,0-1.7,6.18c0,1.36,0,1.87-.34,1.87-.57,0-4.14-1.48-4.14-4.82C232.6,41.94,233.06,39.28,234.53,32.48Zm9.07-14.85a3,3,0,0,1-.68-1.87,28.24,28.24,0,0,1,1.76-7.42c1.76,0,5.72,2.26,6.86,4a51.56,51.56,0,0,0-6.4,7.88c-.91-.17-1.7-.9-1.7-1.53A4.55,4.55,0,0,1,243.6,17.63Z"/><path class="cls-1" d="M246.94,61.28a3.36,3.36,0,0,0-1.92-2.5c1.24-7.77,2.66-14.51,8-33.5a28.51,28.51,0,0,0-5,.28,2.22,2.22,0,0,1-.51-1.36A43.21,43.21,0,0,1,253.69,23c3.57-11.45,9.63-18.65,15.81-18.65.91,0,1.81.17,2.27.17a5.92,5.92,0,0,1,2.83-1,3.47,3.47,0,0,1,1.75.74A22.19,22.19,0,0,0,274.54,9c-1,2.83-2,4.65-3,5.44-.45,0-.63-.46-.68-1.64a13.92,13.92,0,0,0-.34-2.32,4.21,4.21,0,0,1-.4-1.93,17.25,17.25,0,0,1,.29-2.44c-2.5,0-6.41,6.69-9.64,16.38l4.76-.17a7.5,7.5,0,0,1,.74,3.34L260,25.34c-5.66,17-10.2,31.69-11.39,38.09A2.67,2.67,0,0,1,246.94,61.28Z"/><path class="cls-1" d="M269.84,40.41c0,.45-.06,1-.06,1.48,0,1.93.45,4.54,2.61,4.54,4.08,0,8-4.08,10.37-6.63a7.47,7.47,0,0,1,1,1c-3.4,4.48-7.76,7.7-11.33,8.5-5.21-.57-8.28-4.14-8.28-8.68,0-9.3,8.5-20.23,16-20.23A7.76,7.76,0,0,1,285,23.58C284.41,32.88,279.47,36.57,269.84,40.41Zm.45-2.15c6-3,10.48-7.65,10.77-12.81C276.92,26,272.11,31.23,270.29,38.26Z"/></g></g></svg>